<svg width="760" height="220" viewBox="0 0 760 220" xmlns="http://www.w3.org/2000/svg">
  <defs><linearGradient id="pill" x1="0" y1="0" x2="1" y2="1"><stop offset="0" stop-color="#20242d"/><stop offset="1" stop-color="#151820"/></linearGradient><style>.bg{fill:#0f1117}.pill{fill:url(#pill)}.label{fill:#eaedf2;font:700 15px 'Segoe UI',Arial}.title{fill:#f4f6fb;font:700 22px 'Segoe UI',Arial}.desc{fill:#98a2b3;font:400 14px 'Segoe UI',Arial}</style></defs>
  <rect class="bg" width="760" height="220"/><text x="34" y="42" class="title">4. Glass Rail</text><text x="34" y="68" class="desc">Tunn ljusrail som bär all feedback. Elegant och ren.</text>
  <g transform="translate(34,112)"><rect class="pill" width="170" height="54" rx="20"/><path d="M19 27 H55" stroke="#283443" stroke-width="7" stroke-linecap="round"/><path d="M22 27 H39" stroke="#006AA7" stroke-width="7" stroke-linecap="round"/><path d="M40 27 H50" stroke="#FECC02" stroke-width="7" stroke-linecap="round" opacity=".8"/><text x="70" y="33" class="label">Lyssnar</text></g>
  <g transform="translate(268,112)"><rect class="pill" width="218" height="54" rx="20"/><path d="M20 27 H56" stroke="#283443" stroke-width="7" stroke-linecap="round"/><path d="M23 27 H35" stroke="#006AA7" stroke-width="7" stroke-linecap="round"/><path d="M39 27 H53" stroke="#FECC02" stroke-width="7" stroke-linecap="round"/><text x="72" y="33" class="label">Transkriberar</text></g>
  <g transform="translate(540,112)"><rect class="pill" width="218" height="54" rx="20"/><path d="M20 27 H56" stroke="#283443" stroke-width="7" stroke-linecap="round"/><circle cx="27" cy="27" r="4" fill="#006AA7"/><circle cx="39" cy="27" r="4" fill="#7F9B55"/><circle cx="51" cy="27" r="4" fill="#FECC02"/><text x="72" y="33" class="label">LLM-granskar</text></g>
</svg>
